<?xml version="1.0" encoding="UTF-8" ?>
<!DOCTYPE svg PUBLIC "-//W3C//DTD SVG 1.1//EN" "http://www.w3.org/Graphics/SVG/1.1/DTD/svg11.dtd">
<svg width="2100pt" height="552pt" viewBox="0 0 2100 552" version="1.1" xmlns="http://www.w3.org/2000/svg">
<g id="#f8f9f7ff">
<path fill="#f8f9f7" opacity="1.00" d=" M 931.35 291.57 C 951.59 278.51 971.22 264.53 991.64 251.76 C 992.07 252.16 992.92 252.95 993.35 253.34 C 999.74 256.62 1005.84 260.42 1012.21 263.75 C 1016.12 265.86 1020.93 265.84 1024.98 264.08 C 1032.97 260.44 1040.13 255.21 1048.05 251.45 C 1055.12 254.90 1061.31 259.89 1067.97 264.06 C 1082.84 273.80 1097.88 283.34 1112.46 293.50 C 1113.11 301.58 1112.51 309.74 1112.39 317.85 C 1112.32 320.65 1109.44 321.96 1107.51 323.45 C 1087.99 336.21 1068.44 348.91 1048.90 361.62 C 1040.16 357.20 1031.80 352.05 1022.79 348.19 C 1016.72 346.02 1010.99 350.14 1005.88 352.89 C 1001.25 355.16 996.89 357.93 992.37 360.38 C 989.91 361.97 987.64 359.53 985.65 358.35 C 967.80 345.74 949.34 334.01 931.30 321.67 C 931.36 311.64 931.28 301.60 931.35 291.57 Z" />
<path fill="#f8f9f7" opacity="1.00" d=" M 139.08 281.15 C 148.89 280.44 159.19 285.19 164.20 293.80 C 169.85 303.10 168.60 316.14 160.95 323.96 C 154.04 331.84 141.89 334.72 132.19 330.76 C 120.47 326.18 113.21 312.29 116.67 300.10 C 119.26 289.93 128.69 282.13 139.08 281.15 Z" />
<path fill="#f8f9f7" opacity="1.00" d=" M 1559.54 292.36 C 1564.70 291.30 1570.70 291.73 1574.81 295.36 C 1577.77 297.74 1580.04 300.81 1582.00 304.03 C 1585.61 312.87 1586.68 322.76 1584.22 332.05 C 1583.40 334.00 1582.69 335.98 1581.90 337.94 C 1579.55 341.75 1576.98 345.78 1572.81 347.79 C 1567.22 350.70 1560.51 349.98 1554.93 347.45 C 1550.74 344.33 1547.61 340.06 1545.62 335.25 C 1545.50 334.73 1545.25 333.69 1545.13 333.17 C 1543.15 326.66 1543.17 319.71 1543.97 313.01 C 1544.24 311.67 1544.47 310.32 1544.70 308.97 C 1545.20 307.67 1545.74 306.36 1546.30 305.07 C 1546.80 303.99 1547.32 302.92 1547.84 301.85 C 1550.75 297.73 1554.37 293.47 1559.54 292.36 Z" />
<path fill="#f8f9f7" opacity="1.00" d=" M 1726.71 304.76 C 1729.97 298.50 1735.73 292.89 1743.14 292.47 C 1751.97 291.59 1759.74 297.99 1763.25 305.68 C 1765.35 312.61 1765.84 319.89 1765.30 327.08 C 1764.20 332.91 1762.69 339.09 1758.17 343.28 C 1753.69 348.06 1746.45 350.49 1740.10 348.44 C 1730.39 345.88 1724.41 335.60 1724.31 325.97 C 1724.41 319.56 1723.65 312.94 1725.83 306.77 C 1726.05 306.27 1726.49 305.27 1726.71 304.76 Z" />
</g>
<g id="#8e258bff">
<path fill="#8e258b" opacity="1.00" d=" M 402.96 150.85 C 406.41 149.26 410.33 149.76 414.02 149.69 C 421.36 149.85 428.72 149.32 436.03 150.18 C 443.02 150.52 450.02 150.18 457.01 150.35 C 452.56 165.52 445.27 179.78 442.10 195.34 L 441.77 195.96 C 440.52 203.15 438.32 210.14 437.14 217.34 L 436.76 217.97 C 435.12 225.91 433.47 233.85 432.48 241.91 C 460.03 239.11 487.50 235.57 514.97 232.01 C 528.31 230.16 541.76 229.04 555.08 227.04 C 555.33 226.82 555.84 226.36 556.10 226.13 C 557.07 220.18 554.94 213.56 558.10 208.09 C 561.87 203.36 567.72 201.05 572.78 198.00 C 579.76 194.07 586.52 189.66 593.97 186.66 C 598.35 185.28 602.44 188.05 606.22 189.90 C 613.26 193.80 620.21 197.87 627.19 201.88 C 630.54 203.94 634.35 206.07 636.04 209.81 C 637.68 217.42 637.44 225.26 637.30 233.00 C 637.20 237.94 635.97 242.97 637.02 247.86 C 640.90 255.97 649.14 260.52 654.97 267.04 C 660.00 272.66 665.18 278.15 670.59 283.40 C 679.65 291.69 687.77 300.91 696.64 309.40 C 706.25 318.77 715.40 328.61 725.05 337.96 C 730.21 342.66 734.92 347.84 739.41 353.18 C 747.01 349.53 753.81 344.19 761.86 341.51 C 767.72 339.58 772.75 343.78 777.60 346.33 C 783.33 349.14 788.45 353.02 794.12 355.93 C 795.52 355.53 796.74 354.69 797.97 353.93 C 810.93 345.48 824.13 337.40 837.27 329.23 C 841.35 334.46 844.74 340.43 845.75 347.08 C 832.49 355.75 819.11 364.28 805.94 373.09 C 804.56 373.87 804.90 375.62 804.72 376.94 C 804.34 385.26 804.91 393.60 804.41 401.91 C 804.84 407.54 799.21 410.48 795.21 413.14 C 787.46 417.32 780.07 422.12 772.29 426.24 C 768.94 427.98 764.81 429.71 761.13 427.91 C 751.87 423.85 743.36 418.35 734.51 413.50 C 730.64 411.16 725.76 408.96 724.64 404.12 C 722.66 392.18 724.37 380.00 723.06 368.01 C 722.74 364.41 720.09 361.74 717.70 359.30 C 708.64 350.35 699.66 341.31 690.61 332.33 C 667.78 308.63 644.63 285.22 621.19 262.11 C 615.41 265.53 609.15 268.05 603.42 271.56 C 599.91 273.76 595.34 274.40 591.54 272.58 C 581.90 267.74 572.55 262.34 563.40 256.63 C 559.86 254.35 557.46 250.82 555.00 247.51 C 512.90 252.86 470.77 258.02 428.67 263.35 C 425.91 274.45 424.21 285.76 422.15 297.01 C 454.78 297.01 487.41 297.01 520.04 297.01 C 547.36 296.90 574.68 297.27 601.99 296.74 C 611.67 296.82 621.36 296.63 631.03 296.81 C 634.79 296.81 637.32 299.88 639.70 302.36 C 641.18 304.07 643.00 306.06 642.48 308.53 C 640.64 313.66 635.68 317.84 630.02 317.48 C 560.75 316.97 491.47 317.39 422.20 317.22 C 423.39 328.08 425.09 338.90 427.36 349.59 C 455.52 353.89 483.78 357.42 512.05 360.90 C 526.60 362.51 541.03 365.13 555.59 366.64 C 558.49 361.95 562.78 358.32 567.64 355.78 C 576.58 351.07 584.95 345.26 594.35 341.45 C 596.03 340.52 597.96 341.03 599.67 341.62 C 607.25 344.44 613.98 349.02 621.08 352.79 C 633.23 341.26 645.01 329.27 656.55 317.11 C 661.84 321.07 666.44 325.88 670.64 330.98 C 666.85 335.42 662.70 339.54 658.89 343.97 C 651.68 351.48 644.11 358.65 637.54 366.74 C 636.77 379.43 638.44 392.25 636.31 404.83 C 635.35 409.55 630.48 411.55 626.81 413.83 C 618.82 418.17 611.24 423.24 603.15 427.39 C 598.84 429.73 593.50 428.91 589.47 426.38 C 578.81 420.08 567.35 415.00 557.71 407.11 C 555.99 400.50 555.81 393.60 555.66 386.81 C 514.20 381.82 472.79 376.31 431.34 371.22 C 431.87 373.49 432.42 375.77 432.89 378.06 C 433.57 381.05 434.27 384.04 434.88 387.05 C 439.55 406.65 443.70 426.50 451.55 445.14 C 454.07 452.29 458.01 458.91 459.97 466.26 C 441.47 466.33 422.96 466.19 404.45 466.33 C 397.27 449.67 391.30 432.47 387.20 414.78 C 384.17 401.51 380.95 388.27 377.93 374.99 C 377.20 370.63 376.05 366.35 375.24 362.01 L 374.84 361.14 C 374.20 356.35 373.01 351.67 371.81 347.01 C 371.74 346.29 371.58 344.86 371.51 344.15 C 322.96 341.05 274.36 338.89 225.82 335.75 C 215.53 335.54 205.27 334.78 195.05 333.64 C 189.80 341.89 183.50 349.79 174.99 354.86 C 154.07 368.46 124.78 367.18 104.99 352.05 C 90.96 341.77 82.12 324.50 82.60 307.04 C 82.35 295.24 86.10 283.45 92.96 273.86 C 101.54 261.91 114.74 253.48 129.11 250.41 C 146.84 246.93 166.34 250.91 180.24 262.77 C 186.04 267.27 190.40 273.19 194.90 278.88 C 214.28 278.95 233.61 276.93 252.99 276.73 C 286.68 275.22 320.33 273.17 354.02 271.67 C 359.72 271.33 365.41 270.73 371.11 270.40 C 376.12 246.89 381.06 223.36 386.55 199.96 C 389.96 185.02 393.73 170.07 399.72 155.92 C 400.52 154.09 401.32 152.11 402.96 150.85 M 139.08 281.15 C 128.69 282.13 119.26 289.93 116.67 300.10 C 113.21 312.29 120.47 326.18 132.19 330.76 C 141.89 334.72 154.04 331.84 160.95 323.96 C 168.60 316.14 169.85 303.10 164.20 293.80 C 159.19 285.19 148.89 280.44 139.08 281.15 Z" />
<path fill="#8e258b" opacity="1.00" d=" M 1010.88 180.94 C 1015.05 178.38 1020.65 177.35 1025.05 179.97 C 1032.73 184.22 1039.92 189.30 1047.72 193.36 C 1051.98 195.81 1057.33 198.40 1058.28 203.77 C 1060.18 213.67 1058.24 223.78 1059.31 233.75 C 1064.05 237.81 1069.63 240.70 1074.73 244.27 C 1082.04 249.33 1089.74 253.81 1097.09 258.83 C 1106.01 264.74 1114.90 270.75 1124.07 276.25 C 1130.15 274.19 1135.26 269.90 1141.01 267.05 C 1145.79 264.68 1151.17 260.74 1156.69 263.23 C 1166.45 267.79 1175.59 273.57 1184.93 278.95 C 1188.05 281.01 1191.75 283.37 1192.50 287.35 C 1193.54 293.52 1193.15 299.82 1193.22 306.05 C 1193.17 312.42 1193.43 318.84 1192.50 325.15 C 1191.81 330.22 1186.50 332.18 1182.82 334.78 C 1174.67 339.33 1166.65 344.18 1158.30 348.36 C 1154.48 350.44 1149.77 350.26 1146.06 348.06 C 1139.80 344.70 1133.59 341.24 1127.51 337.60 C 1126.10 337.07 1124.49 335.88 1123.09 337.04 C 1108.58 346.49 1094.34 356.36 1079.74 365.68 C 1072.96 369.93 1066.35 374.44 1059.71 378.89 C 1059.74 388.90 1060.60 398.97 1059.47 408.96 C 1058.78 414.45 1053.60 417.59 1049.23 420.09 C 1041.66 424.19 1034.44 428.87 1026.86 432.94 C 1024.43 434.34 1021.65 434.87 1018.97 435.50 C 1011.29 433.42 1004.67 428.92 997.76 425.17 C 992.79 422.24 987.56 419.66 983.05 416.04 C 979.35 413.04 979.48 407.83 978.57 403.58 C 951.39 402.08 924.19 401.06 897.01 399.65 C 886.65 399.51 876.34 398.30 865.98 398.31 C 850.84 397.27 835.56 397.82 820.53 395.52 C 819.52 389.23 819.66 382.61 821.69 376.53 C 831.13 376.04 840.54 377.39 849.98 377.46 C 882.88 378.96 915.77 380.53 948.67 382.02 C 959.26 382.46 969.88 382.86 980.48 382.36 C 978.56 378.50 975.27 375.60 971.72 373.27 C 954.49 361.92 937.44 350.31 920.52 338.51 C 919.36 337.93 918.03 336.67 916.78 337.70 C 909.31 341.66 902.33 346.63 894.44 349.77 C 889.04 351.62 883.86 348.29 879.29 345.81 C 871.08 340.94 862.29 336.99 854.62 331.26 C 851.47 328.94 850.73 324.77 850.50 321.12 C 850.10 311.05 849.95 300.95 850.72 290.90 C 851.00 288.06 851.77 285.06 853.88 283.00 C 857.14 279.71 861.41 277.74 865.35 275.41 C 872.48 271.52 879.14 266.67 886.77 263.77 C 889.57 262.60 892.68 263.31 895.44 264.28 C 903.60 267.17 910.31 272.93 918.07 276.63 C 920.62 275.49 922.76 273.62 925.04 272.02 C 938.77 261.95 953.37 253.16 967.19 243.22 C 972.16 240.11 976.96 236.70 980.92 232.34 C 927.05 232.95 873.29 236.90 819.42 237.79 C 819.47 231.29 819.12 224.79 819.18 218.29 C 828.08 217.24 837.06 217.45 845.99 216.84 C 890.14 215.99 934.22 213.02 978.38 212.22 C 979.05 208.40 979.32 204.45 980.77 200.83 C 982.71 196.77 987.11 194.95 990.72 192.70 C 997.58 189.03 1004.23 184.98 1010.88 180.94 M 931.35 291.57 C 931.28 301.60 931.36 311.64 931.30 321.67 C 949.34 334.01 967.80 345.74 985.65 358.35 C 987.64 359.53 989.91 361.97 992.37 360.38 C 996.89 357.93 1001.25 355.16 1005.88 352.89 C 1010.99 350.14 1016.72 346.02 1022.79 348.19 C 1031.80 352.05 1040.16 357.20 1048.90 361.62 C 1068.44 348.91 1087.99 336.21 1107.51 323.45 C 1109.44 321.96 1112.32 320.65 1112.39 317.85 C 1112.51 309.74 1113.11 301.58 1112.46 293.50 C 1097.88 283.34 1082.84 273.80 1067.97 264.06 C 1061.31 259.89 1055.12 254.90 1048.05 251.45 C 1040.13 255.21 1032.97 260.44 1024.98 264.08 C 1020.93 265.84 1016.12 265.86 1012.21 263.75 C 1005.84 260.42 999.74 256.62 993.35 253.34 C 992.92 252.95 992.07 252.16 991.64 251.76 C 971.22 264.53 951.59 278.51 931.35 291.57 Z" />
<path fill="#8e258b" opacity="1.00" d=" M 758.49 187.77 C 761.78 185.98 765.88 185.90 769.21 187.66 C 778.11 192.33 786.85 197.28 795.50 202.39 C 797.70 203.82 800.12 205.04 801.90 207.02 C 804.40 210.07 804.25 214.23 804.40 217.96 C 804.62 224.42 804.00 230.89 804.51 237.35 C 804.55 240.57 807.50 242.56 809.84 244.26 C 821.80 252.09 834.03 259.59 845.65 267.88 C 843.91 274.32 840.37 280.09 836.93 285.73 C 822.27 277.08 808.37 267.24 793.93 258.25 C 785.87 263.17 777.95 268.38 769.42 272.49 C 765.11 274.79 760.09 273.01 755.97 271.18 C 750.22 268.47 745.18 264.47 739.34 261.93 C 727.92 274.30 716.01 286.23 704.19 298.22 C 699.39 293.43 694.60 288.61 689.79 283.84 C 693.48 280.54 697.16 277.19 700.39 273.43 C 706.34 266.35 713.38 260.30 719.67 253.54 C 721.47 251.37 723.73 249.08 723.54 246.02 C 724.03 234.42 722.38 222.66 724.74 211.18 C 725.65 206.88 729.62 204.40 733.06 202.20 C 741.45 197.25 749.93 192.42 758.49 187.77 Z" />
<path fill="#8e258b" opacity="1.00" d=" M 1950.71 239.72 C 1963.98 236.28 1978.29 236.91 1991.18 241.62 C 1998.21 244.28 2004.80 248.60 2009.25 254.77 C 2014.35 261.07 2015.99 269.25 2017.17 277.06 C 2008.23 277.04 1999.28 277.13 1990.35 277.00 C 1988.50 269.91 1983.42 263.33 1976.01 261.66 C 1967.37 259.90 1957.17 260.12 1950.23 266.24 C 1946.49 269.34 1945.55 274.69 1946.70 279.21 C 1948.34 283.78 1953.02 286.12 1957.21 287.93 C 1973.22 294.16 1991.94 294.14 2005.89 305.14 C 2020.54 316.50 2021.86 339.62 2011.24 354.13 C 2006.94 360.50 1999.82 364.15 1992.84 366.85 C 1981.19 371.38 1968.38 371.37 1956.11 370.24 C 1947.72 369.00 1939.31 366.50 1932.22 361.73 C 1925.27 357.39 1919.79 350.63 1917.24 342.82 C 1915.47 337.90 1915.17 332.65 1914.52 327.52 C 1923.41 327.39 1932.30 327.51 1941.20 327.44 C 1942.73 332.49 1944.13 338.06 1948.42 341.55 C 1955.04 347.42 1964.49 348.28 1972.94 347.37 C 1978.38 346.86 1983.67 344.33 1987.24 340.15 C 1990.21 336.87 1990.41 331.96 1989.46 327.85 C 1987.94 323.15 1983.04 321.01 1978.90 319.14 C 1966.58 314.32 1953.05 313.42 1940.90 308.09 C 1935.04 305.31 1929.06 302.17 1924.78 297.19 C 1914.83 284.39 1916.02 264.10 1927.94 252.93 C 1933.59 245.88 1942.02 241.68 1950.71 239.72 Z" />
<path fill="#8e258b" opacity="1.00" d=" M 1815.88 239.61 C 1844.38 239.44 1872.89 239.31 1901.40 239.36 C 1901.69 246.84 1901.58 254.32 1901.66 261.80 C 1881.71 261.82 1861.75 261.65 1841.81 261.87 C 1840.89 272.02 1841.90 282.30 1841.29 292.49 C 1859.65 293.09 1878.04 292.58 1896.41 292.77 C 1896.56 300.17 1896.21 307.56 1896.22 314.96 C 1878.03 315.04 1859.84 314.81 1841.66 315.09 C 1841.25 332.92 1841.55 350.75 1841.48 368.59 C 1832.19 368.76 1822.91 368.96 1813.63 368.72 C 1813.68 362.80 1813.63 356.87 1813.64 350.94 C 1814.84 329.65 1813.96 308.30 1814.24 286.98 C 1814.56 280.31 1813.43 273.68 1813.64 267.01 C 1813.70 258.66 1813.60 250.31 1813.65 241.96 C 1813.32 240.59 1814.29 239.19 1815.88 239.61 Z" />
<path fill="#8e258b" opacity="1.00" d=" M 1655.27 273.24 C 1655.54 273.37 1656.06 273.62 1656.32 273.74 C 1655.75 278.19 1655.95 282.66 1656.25 287.12 C 1656.95 286.33 1657.78 285.77 1658.74 285.45 C 1658.94 285.43 1659.33 285.40 1659.52 285.38 C 1658.20 287.05 1656.96 288.74 1655.62 290.38 C 1655.07 284.99 1654.80 279.55 1655.18 274.14 C 1655.20 273.92 1655.25 273.47 1655.27 273.24 Z" />
<path fill="#8e258b" opacity="1.00" d=" M 718.27 307.98 C 719.47 302.19 724.62 296.23 730.97 296.63 C 765.86 297.08 800.77 296.29 835.66 297.08 C 835.56 303.69 835.26 310.30 835.42 316.92 C 799.95 317.03 764.47 316.90 729.00 316.99 C 723.41 317.93 720.69 311.90 718.27 307.98 Z" />
</g>
<g id="#0a1415ff">
<path fill="#0a1415" opacity="1.00" d=" M 1261.47 252.45 C 1269.32 243.98 1280.67 239.63 1291.96 238.32 C 1303.78 236.50 1316.12 238.13 1327.12 242.81 C 1334.58 246.54 1341.28 252.11 1345.43 259.44 C 1348.21 264.86 1349.28 270.97 1349.85 276.98 C 1341.19 277.17 1332.52 277.02 1323.86 277.07 C 1322.83 272.50 1320.83 267.90 1316.94 265.07 C 1308.61 259.20 1297.08 258.76 1287.95 262.96 C 1284.20 265.19 1280.51 268.49 1279.75 273.00 C 1278.52 279.09 1283.12 285.14 1288.69 287.15 C 1302.67 292.19 1317.69 293.97 1331.27 300.16 C 1338.51 303.75 1344.77 309.55 1348.29 316.89 C 1354.84 331.43 1350.73 350.36 1337.78 360.02 C 1327.11 368.24 1313.22 371.07 1299.98 370.83 C 1290.87 370.99 1281.84 369.02 1273.35 365.83 C 1266.78 362.84 1260.46 358.67 1256.29 352.64 C 1250.60 345.62 1248.51 336.52 1247.78 327.70 C 1256.83 327.70 1265.88 327.69 1274.94 327.70 C 1275.60 330.14 1276.23 332.60 1276.82 335.07 C 1279.54 341.33 1285.44 345.79 1292.15 346.93 C 1300.13 348.27 1308.95 348.34 1316.16 344.17 C 1320.22 341.87 1322.45 337.39 1323.30 332.96 C 1323.80 329.55 1322.13 326.41 1320.27 323.71 C 1317.85 321.69 1315.30 319.83 1312.36 318.64 C 1300.63 314.42 1287.96 313.41 1276.42 308.55 C 1268.66 305.85 1261.46 301.05 1256.77 294.23 C 1248.87 281.34 1250.76 263.22 1261.47 252.45 Z" />
<path fill="#0a1415" opacity="1.00" d=" M 1765.37 239.37 C 1774.41 239.38 1783.46 239.40 1792.51 239.37 C 1792.29 282.51 1792.14 325.66 1792.33 368.81 C 1783.39 368.87 1774.46 368.79 1765.53 368.54 C 1765.48 363.62 1765.58 358.69 1765.43 353.77 C 1761.38 359.74 1756.76 366.21 1749.51 368.38 C 1738.46 372.68 1725.72 370.48 1715.87 364.22 C 1704.16 356.66 1697.99 342.69 1697.06 329.11 C 1695.90 320.37 1696.49 311.34 1698.85 302.82 C 1699.13 301.81 1699.45 300.80 1699.79 299.80 C 1700.20 298.82 1700.63 297.85 1701.08 296.88 C 1701.26 296.35 1701.61 295.29 1701.79 294.76 C 1702.85 292.81 1703.96 290.90 1705.01 288.95 C 1709.23 283.18 1714.48 277.89 1721.13 275.00 C 1730.44 270.42 1741.60 270.33 1751.28 273.84 C 1757.28 276.21 1761.36 281.47 1765.38 286.26 C 1765.60 270.64 1765.18 255.00 1765.37 239.37 M 1726.71 304.76 C 1726.49 305.27 1726.05 306.27 1725.83 306.77 C 1723.65 312.94 1724.41 319.56 1724.31 325.97 C 1724.41 335.60 1730.39 345.88 1740.10 348.44 C 1746.45 350.49 1753.69 348.06 1758.17 343.28 C 1762.69 339.09 1764.20 332.91 1765.30 327.08 C 1765.84 319.89 1765.35 312.61 1763.25 305.68 C 1759.74 297.99 1751.97 291.59 1743.14 292.47 C 1735.73 292.89 1729.97 298.50 1726.71 304.76 Z" />
<path fill="#0a1415" opacity="1.00" d=" M 1542.28 275.92 C 1550.77 271.66 1560.48 271.16 1569.80 271.64 C 1579.51 272.55 1589.36 275.65 1596.69 282.32 C 1602.98 287.79 1607.41 295.14 1609.99 303.02 C 1614.46 317.85 1612.80 334.09 1606.20 348.02 C 1605.41 348.97 1604.71 349.97 1604.05 351.00 C 1603.34 352.01 1602.68 353.05 1602.12 354.14 C 1590.15 368.36 1569.89 373.70 1552.11 369.42 C 1541.24 366.98 1530.68 360.97 1524.67 351.36 C 1522.65 348.52 1521.18 345.37 1519.80 342.20 C 1519.48 341.20 1519.16 340.21 1518.83 339.23 C 1515.48 328.54 1515.69 316.97 1518.08 306.10 C 1518.44 305.13 1518.81 304.16 1519.21 303.20 C 1519.39 302.12 1519.60 301.06 1519.83 299.99 C 1521.03 297.71 1522.19 295.39 1523.28 293.05 C 1527.81 285.68 1534.47 279.65 1542.28 275.92 M 1559.54 292.36 C 1554.37 293.47 1550.75 297.73 1547.84 301.85 C 1547.32 302.92 1546.80 303.99 1546.30 305.07 C 1545.74 306.36 1545.20 307.67 1544.70 308.97 C 1544.47 310.32 1544.24 311.67 1543.97 313.01 C 1543.17 319.71 1543.15 326.66 1545.13 333.17 C 1545.25 333.69 1545.50 334.73 1545.62 335.25 C 1547.61 340.06 1550.74 344.33 1554.93 347.45 C 1560.51 349.98 1567.22 350.70 1572.81 347.79 C 1576.98 345.78 1579.55 341.75 1581.90 337.94 C 1582.69 335.98 1583.40 334.00 1584.22 332.05 C 1586.68 322.76 1585.61 312.87 1582.00 304.03 C 1580.04 300.81 1577.77 297.74 1574.81 295.36 C 1570.70 291.73 1564.70 291.30 1559.54 292.36 Z" />
<path fill="#0a1415" opacity="1.00" d=" M 1361.80 272.54 C 1370.98 272.57 1380.15 272.48 1389.33 272.59 C 1389.52 273.74 1389.72 274.90 1389.94 276.06 C 1391.15 280.35 1392.10 284.72 1393.02 289.10 C 1393.68 291.75 1394.34 294.40 1394.94 297.07 C 1395.32 298.40 1395.59 299.74 1395.95 301.09 C 1396.34 302.74 1396.65 304.41 1397.02 306.08 C 1398.49 311.04 1399.61 316.10 1400.94 321.10 C 1401.32 322.41 1401.62 323.73 1402.01 325.06 C 1402.34 326.39 1402.59 327.72 1402.91 329.07 C 1403.63 331.47 1404.29 333.88 1405.02 336.29 C 1405.73 333.60 1406.41 330.90 1407.18 328.23 C 1412.31 309.75 1416.63 291.05 1421.69 272.55 C 1430.51 272.55 1439.34 272.49 1448.17 272.59 C 1448.67 275.12 1449.38 277.61 1449.97 280.14 C 1451.75 286.44 1453.42 292.78 1455.00 299.14 C 1455.64 301.46 1456.29 303.79 1456.87 306.13 C 1457.94 309.79 1458.90 313.48 1459.92 317.16 C 1460.29 318.49 1460.55 319.83 1460.90 321.18 C 1461.27 322.16 1461.66 323.14 1462.07 324.13 C 1462.31 325.46 1462.55 326.81 1462.83 328.15 C 1463.27 329.47 1463.62 330.80 1464.08 332.13 C 1464.34 333.35 1464.60 334.58 1464.88 335.82 C 1465.18 335.63 1465.78 335.25 1466.09 335.06 C 1466.75 330.37 1468.04 325.80 1469.14 321.19 C 1469.43 319.86 1469.75 318.53 1470.13 317.21 C 1470.98 312.84 1472.10 308.54 1473.10 304.20 C 1473.43 302.88 1473.80 301.57 1474.22 300.27 C 1474.38 299.19 1474.56 298.12 1474.78 297.05 C 1475.23 295.44 1475.62 293.82 1476.13 292.22 C 1476.39 290.87 1476.67 289.53 1477.02 288.20 C 1477.36 286.86 1477.71 285.52 1478.12 284.20 C 1478.86 280.30 1479.97 276.49 1480.88 272.63 C 1490.04 272.42 1499.20 272.61 1508.37 272.53 C 1507.60 275.08 1506.82 277.62 1506.15 280.20 C 1505.75 281.18 1505.38 282.18 1505.03 283.18 C 1504.39 285.52 1503.73 287.86 1503.16 290.23 C 1502.73 291.20 1502.31 292.19 1501.92 293.18 C 1501.63 294.54 1501.41 295.92 1501.16 297.29 C 1500.38 299.56 1499.72 301.87 1499.06 304.18 C 1498.70 305.50 1498.41 306.84 1498.14 308.18 C 1497.37 310.48 1496.75 312.84 1496.09 315.17 C 1495.40 317.50 1494.73 319.83 1494.09 322.17 C 1493.39 324.49 1492.73 326.82 1492.09 329.16 C 1491.38 331.49 1490.73 333.84 1490.09 336.19 C 1489.73 337.16 1489.39 338.14 1489.08 339.13 C 1488.47 341.49 1487.76 343.82 1487.05 346.15 C 1486.70 347.47 1486.41 348.80 1486.12 350.13 C 1485.38 352.44 1484.73 354.78 1484.09 357.13 C 1483.31 359.75 1482.58 362.39 1481.71 364.99 C 1481.53 366.18 1481.38 367.37 1481.26 368.57 C 1471.47 368.70 1461.67 368.45 1451.88 368.78 C 1451.63 367.22 1451.40 365.67 1451.12 364.12 C 1450.69 363.11 1450.28 362.09 1449.89 361.09 C 1449.57 359.75 1449.32 358.42 1448.99 357.10 C 1448.30 354.75 1447.67 352.39 1446.99 350.05 C 1446.61 348.73 1446.31 347.41 1445.93 346.11 C 1444.95 342.44 1443.93 338.78 1442.95 335.12 C 1442.62 334.12 1442.30 333.13 1441.99 332.15 C 1441.59 331.15 1441.20 330.16 1440.83 329.18 C 1440.65 328.13 1440.49 327.10 1440.36 326.06 C 1439.85 324.77 1439.36 323.48 1438.88 322.20 C 1438.60 320.84 1438.33 319.49 1438.06 318.14 C 1437.67 317.13 1437.29 316.11 1436.93 315.10 C 1436.55 314.10 1436.17 313.09 1435.78 312.10 C 1435.69 311.32 1435.50 309.75 1435.40 308.96 C 1435.04 309.14 1434.32 309.49 1433.96 309.66 C 1431.39 320.27 1427.99 330.67 1425.14 341.21 C 1424.77 342.54 1424.47 343.90 1424.20 345.25 C 1423.78 346.22 1423.39 347.19 1423.03 348.17 C 1422.72 349.51 1422.47 350.87 1422.23 352.23 C 1421.80 353.20 1421.40 354.17 1421.03 355.16 C 1420.72 356.50 1420.45 357.84 1420.20 359.19 C 1419.16 362.36 1418.30 365.58 1417.36 368.77 C 1407.91 368.75 1398.46 369.02 1389.03 368.62 C 1386.86 358.95 1383.55 349.58 1380.80 340.06 C 1379.55 335.71 1378.42 331.33 1376.97 327.05 C 1376.35 325.07 1375.74 323.10 1375.28 321.09 C 1374.77 319.44 1374.37 317.77 1373.91 316.11 C 1372.77 311.75 1371.38 307.46 1370.28 303.09 C 1369.25 299.43 1368.20 295.77 1367.27 292.09 C 1365.33 285.61 1363.52 279.08 1361.80 272.54 Z" />
<path fill="#0a1415" opacity="1.00" d=" M 1671.04 272.98 C 1677.27 270.49 1684.13 271.23 1690.55 272.54 C 1690.43 275.01 1690.35 277.51 1689.81 279.94 C 1689.50 285.22 1689.39 290.52 1689.41 295.82 C 1683.48 294.37 1677.11 293.35 1671.17 295.25 C 1667.04 296.65 1663.43 299.39 1660.98 302.99 C 1660.21 304.21 1659.49 305.47 1658.77 306.71 C 1658.49 307.76 1658.21 308.81 1657.94 309.86 C 1657.53 311.56 1657.17 313.26 1656.75 314.96 C 1656.70 323.97 1656.72 332.99 1656.74 342.00 C 1656.73 345.66 1656.69 349.33 1656.72 353.00 C 1656.73 358.21 1656.69 363.43 1656.75 368.64 C 1647.91 368.58 1639.08 368.54 1630.26 368.84 C 1629.11 359.58 1630.06 350.21 1629.70 340.90 C 1630.01 336.96 1630.67 332.98 1629.77 329.06 C 1629.41 310.25 1629.68 291.44 1629.63 272.63 C 1638.19 272.50 1646.77 272.45 1655.33 272.65 L 1655.27 273.24 C 1655.25 273.47 1655.20 273.92 1655.18 274.14 C 1654.80 279.55 1655.07 284.99 1655.62 290.38 C 1656.96 288.74 1658.20 287.05 1659.52 285.38 C 1659.33 285.40 1658.94 285.43 1658.74 285.45 L 1658.29 285.48 C 1661.14 280.18 1665.12 275.00 1671.04 272.98 Z" />
</g>
</svg>
